<?xml version="1.0" encoding="UTF-8"?>
<svg id="Layer_2" data-name="Layer 2" xmlns="http://www.w3.org/2000/svg" viewBox="0 0 864 162.91">
  <defs>
    <style>
      .cls-1 {
        fill: #0c0d0e;
      }
    </style>
  </defs>
  <g id="Layer_1-2" data-name="Layer 1">
    <g>
      <g>
        <path class="cls-1" d="M2.29,0h74.91l2.29,30.19h-3.34c-2.05-10.11-4.77-17.1-8.16-20.99-3.39-3.88-7.83-5.83-13.34-5.83h-7.14v82.02h15.73v3.38H16.25v-3.38h15.73V3.38h-7.14c-5.51,0-9.95,1.94-13.34,5.83-3.39,3.88-6.11,10.88-8.16,20.99H0L2.29,0Z"/>
        <path class="cls-1" d="M153.43,3.38v38.07h7.93c2.8,0,5.17-.28,7.11-.83,1.94-.55,3.69-2.04,5.24-4.47,1.55-2.43,2.44-6.22,2.65-11.39h3.41v37.6h-3.41c-.35-7.15-1.72-11.86-4.1-14.13-2.38-2.27-6.02-3.41-10.91-3.41h-7.93v40.58h17.89c10.14,0,17.16-2.15,21.07-6.45,3.91-4.3,6.24-10.93,6.98-19.89h3.34l-.85,29.72h-77.93v-3.38h13.96V3.38h-13.96V0h74.71l1.51,23.7h-3.34c-1.14-7.19-3.47-12.38-7.01-15.56-3.54-3.18-9.44-4.77-17.7-4.77h-18.68Z"/>
        <path class="cls-1" d="M304.23,38.2l33.95,47.2h11.01v3.38h-44.17v-3.38h15.01l-25.23-35.15-27.53,35.15h17.17v3.38h-34.74v-3.38h13.3l29.49-38-31.66-44.02h-11.14V0h43.78v3.38h-14.48l22.94,31.71,24.97-31.71h-15.07V0h31.85v3.38h-12.39l-27.07,34.82Z"/>
        <path class="cls-1" d="M392.51,0h74.91l2.29,30.19h-3.34c-2.05-10.11-4.77-17.1-8.16-20.99-3.39-3.88-7.83-5.83-13.34-5.83h-7.14v82.02h15.73v3.38h-46.99v-3.38h15.73V3.38h-7.14c-5.51,0-9.95,1.94-13.34,5.83-3.39,3.88-6.11,10.88-8.16,20.99h-3.34l2.29-30.19Z"/>
        <path class="cls-1" d="M587.16,3.38h-14.35V0h31.39v3.38h-13.83v53.69c0,7.77-.58,13.51-1.74,17.21-1.16,3.71-3.27,6.82-6.32,9.33-3.06,2.52-6.72,4.35-10.98,5.49-4.26,1.15-8.66,1.72-13.21,1.72-9.61,0-16.65-1.52-21.1-4.57-4.46-3.05-7.2-6.8-8.23-11.25-1.03-4.46-1.54-10.44-1.54-17.94V3.38h-12.71V0h42.01v3.38h-13.83v52.17c0,7.19.33,12.84.98,16.95.66,4.1,2.43,7.53,5.31,10.26,2.88,2.74,7.45,4.1,13.7,4.1,5.07,0,9.61-1.05,13.63-3.14,4.02-2.1,6.83-4.91,8.42-8.44,1.59-3.53,2.39-10.11,2.39-19.73V3.38Z"/>
        <path class="cls-1" d="M665.09,85.4V3.38h-13.83V0h48.17c6.29,0,11.46.55,15.5,1.66,4.04,1.1,7.53,3.39,10.45,6.85,2.93,3.47,4.39,7.45,4.39,11.95,0,5.61-2.14,10.15-6.42,13.64-4.28,3.49-11.53,6.11-21.76,7.88v.33c7.34,1.46,13.36,4.28,18.06,8.47,4.7,4.19,7.05,11.3,7.05,21.32,0,5.74.67,9.41,2,11.02,1.33,1.61,3.18,2.42,5.54,2.42,1.53,0,3.36-.31,5.51-.93v3.24c-3.8,1.32-7.47,1.99-11.01,1.99-7.21,0-12.3-2.03-15.27-6.09-2.97-4.06-4.41-8.03-4.33-11.92l.26-11.25c0-3.93-1.23-7.8-3.7-11.62-2.47-3.82-8.07-5.73-16.81-5.73h-8.19v42.17h13.83v3.38h-43.26v-3.38h13.83ZM680.69,3.38v36.74h11.8c5.07,0,8.93-.34,11.6-1.03,2.66-.68,4.79-2.47,6.39-5.36,1.59-2.89,2.39-7.49,2.39-13.8,0-5.16-.81-8.94-2.43-11.32-1.62-2.38-3.57-3.85-5.87-4.4-2.29-.55-5.3-.83-9.01-.83h-14.88Z"/>
        <path class="cls-1" d="M814.71,3.38v38.07h7.93c2.8,0,5.17-.28,7.11-.83,1.94-.55,3.69-2.04,5.24-4.47,1.55-2.43,2.44-6.22,2.65-11.39h3.41v37.6h-3.41c-.35-7.15-1.72-11.86-4.1-14.13-2.38-2.27-6.02-3.41-10.91-3.41h-7.93v40.58h17.89c10.14,0,17.16-2.15,21.07-6.45,3.91-4.3,6.24-10.93,6.98-19.89h3.34l-.85,29.72h-77.93v-3.38h13.96V3.38h-13.96V0h74.71l1.51,23.7h-3.34c-1.14-7.19-3.47-12.38-7.01-15.56-3.54-3.18-9.44-4.77-17.7-4.77h-18.68Z"/>
      </g>
      <g>
        <path class="cls-1" d="M177.67,162.58l-4.81-6.82h-4.31v6.82h-3.44v-19.57h8.72c4.5,0,7.27,2.38,7.27,6.21,0,3.24-1.93,5.2-4.67,5.96l5.28,7.41h-4.05ZM173.56,146.14h-5v6.57h5.03c2.46,0,4.03-1.29,4.03-3.3,0-2.15-1.51-3.27-4.05-3.27Z"/>
        <path class="cls-1" d="M213.83,146.08h-11.07v5.09h9.81v3.08h-9.81v5.26h11.21v3.08h-14.65v-19.57h14.51v3.08Z"/>
        <path class="cls-1" d="M245.7,143.01h3.38v19.57h-2.88l-10.79-13.92v13.92h-3.38v-19.57h3.19l10.48,13.53v-13.53Z"/>
        <path class="cls-1" d="M276.38,162.58h-3.47v-16.38h-6.21v-3.19h15.88v3.19h-6.21v16.38Z"/>
        <path class="cls-1" d="M316.42,162.58h-3.63l-1.99-4.72h-9.25l-2.01,4.72h-3.52l8.61-19.71h3.19l8.61,19.71ZM306.16,146.98l-3.35,7.83h6.74l-3.38-7.83Z"/>
        <path class="cls-1" d="M333.76,143.01h3.44v16.44h10.29v3.13h-13.73v-19.57Z"/>
        <path class="cls-1" d="M396.5,162.91c-5.7,0-9.95-4.45-9.95-10.09s4.17-10.15,10.09-10.15c3.61,0,5.79,1.26,7.66,3.05l-2.21,2.54c-1.57-1.45-3.24-2.43-5.48-2.43-3.75,0-6.46,3.08-6.46,6.93s2.71,6.99,6.46,6.99c2.4,0,3.94-.98,5.62-2.54l2.21,2.24c-2.04,2.13-4.28,3.47-7.94,3.47Z"/>
        <path class="cls-1" d="M430.81,162.91c-6.01,0-10.2-4.56-10.2-10.09s4.25-10.15,10.26-10.15,10.2,4.56,10.2,10.09-4.25,10.15-10.26,10.15ZM430.81,145.83c-3.89,0-6.6,3.1-6.6,6.93s2.77,6.99,6.65,6.99,6.6-3.1,6.6-6.93-2.77-6.99-6.65-6.99Z"/>
        <path class="cls-1" d="M459.22,143.01h3.44v16.44h10.29v3.13h-13.73v-19.57Z"/>
        <path class="cls-1" d="M490.51,143.01h3.44v16.44h10.29v3.13h-13.73v-19.57Z"/>
        <path class="cls-1" d="M536.31,146.08h-11.07v5.09h9.81v3.08h-9.81v5.26h11.21v3.08h-14.65v-19.57h14.51v3.08Z"/>
        <path class="cls-1" d="M563.6,162.91c-5.7,0-9.95-4.45-9.95-10.09s4.17-10.15,10.09-10.15c3.61,0,5.79,1.26,7.66,3.05l-2.21,2.54c-1.57-1.45-3.24-2.43-5.48-2.43-3.75,0-6.46,3.08-6.46,6.93s2.71,6.99,6.46,6.99c2.4,0,3.94-.98,5.62-2.54l2.21,2.24c-2.04,2.13-4.28,3.47-7.94,3.47Z"/>
        <path class="cls-1" d="M597.41,162.58h-3.47v-16.38h-6.21v-3.19h15.88v3.19h-6.21v16.38Z"/>
        <path class="cls-1" d="M624.87,143.01v19.57h-3.44v-19.57h3.44Z"/>
        <path class="cls-1" d="M653.41,162.91c-6.01,0-10.2-4.56-10.2-10.09s4.25-10.15,10.26-10.15,10.2,4.56,10.2,10.09-4.25,10.15-10.26,10.15ZM653.41,145.83c-3.89,0-6.6,3.1-6.6,6.93s2.77,6.99,6.65,6.99,6.6-3.1,6.6-6.93-2.77-6.99-6.65-6.99Z"/>
        <path class="cls-1" d="M695.5,143.01h3.38v19.57h-2.88l-10.79-13.92v13.92h-3.38v-19.57h3.19l10.48,13.53v-13.53Z"/>
      </g>
    </g>
  </g>
</svg>