<?xml version="1.0" encoding="UTF-8"?>
<svg id="Layer_2" data-name="Layer 2" xmlns="http://www.w3.org/2000/svg" viewBox="0 0 628.69 72.84">
  <g id="Layer_1-2" data-name="Layer 1">
    <g>
      <g>
        <path d="M78,1.91h-5.94V.85h27.77v1.06h-5.94c-.74,0-1.06.53-.74,1.27l24.27,53.11L138.85,3.18c.32-.74-.11-1.27-.85-1.27h-5.94V.85h15.79v1.06h-5.94c-.95,0-1.7.53-2.01,1.38l-28.09,69.22L79.91,3.29c-.42-.95-.95-1.38-1.91-1.38Z"/>
        <path d="M153.05,70.6h5.94c.64,0,1.06-.42,1.06-1.06V2.97c0-.64-.42-1.06-1.06-1.06h-5.94V.85h51.31l3.18,24.38h-1.06c-2.33-16.01-11.77-23.32-23-23.32h-9.12c-.64,0-1.06.42-1.06,1.06v30.74h4.13c8.69,0,14.31-4.98,14.31-13.89h1.06v28.94h-1.06c0-9.22-5.72-13.99-14.31-13.99h-4.13v34.77c0,.64.42,1.06,1.06,1.06h11.02c11.02,0,20.46-7.21,23-23.43h1.06l-3.18,24.49h-53.21v-1.06Z"/>
        <path d="M227.56,3.29v66.25c0,.64.42,1.06.95,1.06h5.94v1.06h-14.95v-1.06h5.94c.64,0,1.06-.42,1.06-1.06V2.97c0-.64-.42-1.06-1.06-1.06h-5.94V.85h19.4l41.24,53.43V2.97c0-.64-.42-1.06-.74-1.06h-5.62V.85h14.42v1.06h-5.94c-.64,0-1.06.42-1.06,1.06v69.54L227.56,3.29Z"/>
        <path d="M296.89,70.6h5.94c.64,0,1.06-.42,1.06-1.06V2.97c0-.64-.42-1.06-1.06-1.06h-5.94V.85h29.79c24.7,0,39.33,13.04,39.54,35.3.21,22.37-14.52,35.51-39.54,35.51h-29.79v-1.06ZM352.96,36.15c0-21.52-9.75-34.24-26.29-34.24h-8.48c-.64,0-1.06.42-1.06,1.06v66.57c0,.64.42,1.06,1.06,1.06h8.48c16.54,0,26.29-12.83,26.29-34.45Z"/>
        <path d="M377.24,36.25c0-22.79,12.51-36.25,33.71-36.25s33.6,13.46,33.6,36.25-12.51,36.36-33.6,36.36-33.71-13.46-33.71-36.36ZM431.3,36.25c0-23.11-7.1-35.19-20.35-35.19s-20.46,12.08-20.46,35.19,7.1,35.3,20.46,35.3,20.35-12.08,20.35-35.3Z"/>
        <path d="M455.04,70.6h5.94c.64,0,1.06-.42,1.06-1.06V2.97c0-.64-.42-1.06-1.06-1.06h-5.94V.85h32.97c18.87,0,30,7.21,30,19.19-.11,11.34-9.33,18.23-24.91,19.4v.53c18.23.64,24.8,5.51,24.8,17.28,0,9.86,2.12,13.25,8.27,13.36v1.06c-15.9.11-21.31-3.6-21.52-14.31-.11-12.61-4.35-17.07-16.64-17.07h-12.72v29.26c0,.64.42,1.06,1.06,1.06h5.94v1.06h-27.24v-1.06ZM488.01,39.22c10.49-.11,16.75-7.21,16.75-19.19s-6.25-18.13-16.75-18.13h-11.66c-.64,0-1.06.42-1.06,1.06v36.25h12.72Z"/>
      </g>
      <g>
        <path d="M538.01,69.34h2.09c.22,0,.43-.14.5-.36l8.21-22.61c.07-.22,0-.36-.22-.36h-1.94v-.36h17.49l-1.98,8.28h-.36c1.19-5.4-1.08-7.92-4.9-7.92h-3.1c-.22,0-.43.14-.5.36l-3.78,10.44h1.4c2.95,0,5.47-1.69,6.55-4.72h.36l-3.56,9.83h-.36c1.15-3.13-.22-4.75-3.13-4.75h-1.4l-4.28,11.81c-.07.22,0,.36.22.36h3.74c3.74,0,7.85-2.41,10.73-7.96h.36l-4.14,8.31h-18v-.36Z"/>
        <path d="M560.65,69.34h2.09c.22,0,.43-.14.5-.36l8.21-22.61c.07-.22,0-.36-.22-.36h-1.94v-.36h10.19c8.39,0,11.73,4.46,9.07,11.99-2.7,7.56-9.36,12.06-17.85,12.06h-10.04v-.36ZM584.05,57.64c2.63-7.31.9-11.63-4.72-11.63h-2.88c-.22,0-.43.14-.5.36l-8.21,22.61c-.07.22,0,.36.22.36h2.88c5.62,0,10.51-4.32,13.21-11.7Z"/>
        <path d="M587.87,69.34h2.09c.22,0,.43-.14.5-.36l8.21-22.61c.07-.22,0-.36-.22-.36h-1.94v-.36h9.25v.36h-2.09c-.22,0-.43.14-.5.36l-8.21,22.61c-.07.22,0,.36.22.36h1.94v.36h-9.25v-.36Z"/>
        <path d="M605.65,69.34h2.09c.22,0,.43-.14.5-.36l8.21-22.61c.07-.22,0-.36-.22-.36h-.58c-3.06,0-6.98,2.41-9.79,7.92h-.36l3.74-8.28h19.44l-1.94,8.28h-.36c1.19-5.44-1.12-7.92-4.21-7.92h-.72c-.22,0-.43.14-.5.36l-8.21,22.61c-.07.22,0,.36.22.36h1.94v.36h-9.25v-.36Z"/>
      </g>
      <g>
        <path d="M.14,72.48h2.09c.22,0,.43-.14.5-.36l8.21-22.61c.07-.22,0-.36-.22-.36h-.58c-3.06,0-6.98,2.41-9.79,7.92h-.36l3.74-8.28h19.44l-1.94,8.28h-.36c1.19-5.44-1.12-7.92-4.21-7.92h-.72c-.22,0-.43.14-.5.36l-8.21,22.61c-.07.22,0,.36.22.36h1.94v.36H.14v-.36Z"/>
        <path d="M33.98,72.48h2.09c.22,0,.43-.14.5-.36l4.28-11.77h-11.16l-4.28,11.77c-.07.22,0,.36.22.36h1.94v.36h-9.25v-.36h2.09c.22,0,.43-.14.5-.36l8.21-22.61c.07-.22,0-.36-.22-.36h-1.94v-.36h9.25v.36h-2.09c-.22,0-.43.14-.5.36l-3.82,10.47h11.16l3.82-10.47c.07-.22,0-.36-.22-.36h-1.94v-.36h9.25v.36h-2.09c-.22,0-.43.14-.5.36l-8.21,22.61c-.07.22,0,.36.22.36h1.94v.36h-9.25v-.36Z"/>
        <path d="M46.62,72.48h2.09c.22,0,.43-.14.5-.36l8.21-22.61c.07-.22,0-.36-.22-.36h-1.94v-.36h17.49l-1.98,8.28h-.36c1.19-5.4-1.08-7.92-4.9-7.92h-3.1c-.22,0-.43.14-.5.36l-3.78,10.44h1.4c2.95,0,5.47-1.69,6.55-4.72h.36l-3.56,9.83h-.36c1.15-3.13-.22-4.75-3.13-4.75h-1.4l-4.28,11.81c-.07.22,0,.36.22.36h3.74c3.74,0,7.85-2.41,10.73-7.96h.36l-4.14,8.31h-18v-.36Z"/>
      </g>
    </g>
  </g>
</svg>